<?xml version="1.0" encoding="UTF-8"?>
<svg xmlns="http://www.w3.org/2000/svg" viewBox="4 26 134 74" fill="none" role="img" aria-label="MemoryBinder">
  <title>MemoryBinder</title>
  <g stroke="none">
    <path fill="#1f7a7e" d="M 32.0000 28.0000 C 34.9167 28.0000 46.5000 27.5000 49.5000 28.0000 C 52.5000 28.5000 48.8333 30.5000 50.0000 31.0000 C 51.1667 31.5000 54.5000 30.6667 56.5000 31.0000 C 58.5000 31.3333 61.0833 32.1667 62.0000 33.0000 C 62.9167 33.8333 61.5000 35.5000 62.0000 36.0000 C 62.5000 36.5000 64.1667 35.6667 65.0000 36.0000 C 65.8333 36.3333 66.6667 37.1667 67.0000 38.0000 C 67.3333 38.8333 66.5000 40.5000 67.0000 41.0000 C 67.5000 41.5000 69.1667 40.6667 70.0000 41.0000 C 70.8333 41.3333 71.6667 42.1667 72.0000 43.0000 C 72.3333 43.8333 71.1667 45.5000 72.0000 46.0000 C 72.8333 46.5000 76.1667 45.6667 77.0000 46.0000 C 77.8333 46.3333 76.5000 47.6667 77.0000 48.0000 C 77.5000 48.3333 79.5000 47.5000 80.0000 48.0000 C 80.5000 48.5000 79.6667 50.1667 80.0000 51.0000 C 80.3333 51.8333 81.1667 52.6667 82.0000 53.0000 C 82.8333 53.3333 84.1667 52.5000 85.0000 53.0000 C 85.8333 53.5000 86.6667 53.0000 87.0000 56.0000 C 87.3333 59.0000 87.8333 68.5000 87.0000 71.0000 C 86.1667 73.5000 82.8333 71.5000 82.0000 71.0000 C 81.1667 70.5000 82.3333 68.8333 82.0000 68.0000 C 81.6667 67.1667 80.8333 66.3333 80.0000 66.0000 C 79.1667 65.6667 77.5000 66.5000 77.0000 66.0000 C 76.5000 65.5000 77.3333 63.8333 77.0000 63.0000 C 76.6667 62.1667 75.8333 61.3333 75.0000 61.0000 C 74.1667 60.6667 72.5000 61.5000 72.0000 61.0000 C 71.5000 60.5000 72.3333 58.8333 72.0000 58.0000 C 71.6667 57.1667 70.8333 56.3333 70.0000 56.0000 C 69.1667 55.6667 67.5000 56.5000 67.0000 56.0000 C 66.5000 55.5000 67.3333 53.8333 67.0000 53.0000 C 66.6667 52.1667 65.8333 51.3333 65.0000 51.0000 C 64.1667 50.6667 62.5000 51.5000 62.0000 51.0000 C 61.5000 50.5000 62.3333 48.8333 62.0000 48.0000 C 61.6667 47.1667 60.8333 46.3333 60.0000 46.0000 C 59.1667 45.6667 57.5000 46.5000 57.0000 46.0000 C 56.5000 45.5000 57.9167 43.8333 57.0000 43.0000 C 56.0833 42.1667 56.0000 41.3333 51.5000 41.0000 C 47.0000 40.6667 34.0833 40.6667 30.0000 41.0000 C 25.9167 41.3333 27.5000 42.1667 27.0000 43.0000 C 26.5000 43.8333 27.3333 45.1667 27.0000 46.0000 C 26.6667 46.8333 25.8333 47.6667 25.0000 48.0000 C 24.1667 48.3333 22.8333 47.0833 22.0000 48.0000 C 21.1667 48.9167 20.3333 49.3333 20.0000 53.5000 C 19.6667 57.6667 19.6667 69.7500 20.0000 73.0000 C 20.3333 76.2500 21.6667 72.1667 22.0000 73.0000 C 22.3333 73.8333 21.5000 77.1667 22.0000 78.0000 C 22.5000 78.8333 24.5000 77.5000 25.0000 78.0000 C 25.5000 78.5000 24.6667 80.1667 25.0000 81.0000 C 25.3333 81.8333 25.8333 82.6667 27.0000 83.0000 C 28.1667 83.3333 31.1667 82.5000 32.0000 83.0000 C 32.8333 83.5000 29.0000 85.5000 32.0000 86.0000 C 35.0000 86.5000 46.6667 86.5000 50.0000 86.0000 C 53.3333 85.5000 51.6667 81.4167 52.0000 83.0000 C 52.3333 84.5833 52.3333 93.0000 52.0000 95.5000 C 51.6667 98.0000 53.3333 97.5833 50.0000 98.0000 C 46.6667 98.4167 35.0833 98.3333 32.0000 98.0000 C 28.9167 97.6667 32.6667 96.3333 31.5000 96.0000 C 30.3333 95.6667 26.0833 96.5000 25.0000 96.0000 C 23.9167 95.5000 25.5000 93.5000 25.0000 93.0000 C 24.5000 92.5000 22.8333 93.3333 22.0000 93.0000 C 21.1667 92.6667 20.3333 91.8333 20.0000 91.0000 C 19.6667 90.1667 20.5000 88.5000 20.0000 88.0000 C 19.5000 87.5000 17.8333 88.3333 17.0000 88.0000 C 16.1667 87.6667 15.3333 86.8333 15.0000 86.0000 C 14.6667 85.1667 15.5000 83.5000 15.0000 83.0000 C 14.5000 82.5000 12.8333 83.9167 12.0000 83.0000 C 11.1667 82.0833 10.3333 80.0000 10.0000 77.5000 C 9.6667 75.0000 10.5000 69.6667 10.0000 68.0000 C 9.5000 66.3333 7.5000 69.1667 7.0000 67.5000 C 6.5000 65.8333 6.5000 59.5833 7.0000 58.0000 C 7.5000 56.4167 9.5000 59.5833 10.0000 58.0000 C 10.5000 56.4167 9.6667 51.0000 10.0000 48.5000 C 10.3333 46.0000 11.1667 43.9167 12.0000 43.0000 C 12.8333 42.0833 14.1667 43.3333 15.0000 43.0000 C 15.8333 42.6667 16.6667 41.8333 17.0000 41.0000 C 17.3333 40.1667 16.5000 38.5000 17.0000 38.0000 C 17.5000 37.5000 19.1667 38.3333 20.0000 38.0000 C 20.8333 37.6667 21.6667 36.8333 22.0000 36.0000 C 22.3333 35.1667 21.5000 33.8333 22.0000 33.0000 C 22.5000 32.1667 23.3333 31.3333 25.0000 31.0000 C 26.6667 30.6667 30.8333 31.5000 32.0000 31.0000 C 33.1667 30.5000 32.0000 28.5000 32.0000 28.0000 C 32.0000 27.5000 29.0833 28.0000 32.0000 28.0000 Z"/>
    <path fill="#c20067" d="M 87.0000 28.0000 C 89.9167 28.0000 101.5000 27.5000 104.5000 28.0000 C 107.5000 28.5000 103.8333 30.5000 105.0000 31.0000 C 106.1667 31.5000 109.8333 30.6667 111.5000 31.0000 C 113.1667 31.3333 114.4167 32.1667 115.0000 33.0000 C 115.5833 33.8333 114.6667 35.1667 115.0000 36.0000 C 115.3333 36.8333 116.1667 37.6667 117.0000 38.0000 C 117.8333 38.3333 119.5000 37.5000 120.0000 38.0000 C 120.5000 38.5000 119.5000 40.5000 120.0000 41.0000 C 120.5000 41.5000 122.1667 40.6667 123.0000 41.0000 C 123.8333 41.3333 124.6667 41.8333 125.0000 43.0000 C 125.3333 44.1667 124.5000 47.1667 125.0000 48.0000 C 125.5000 48.8333 127.5000 46.7500 128.0000 48.0000 C 128.5000 49.2500 127.6667 54.0833 128.0000 55.5000 C 128.3333 56.9167 129.6667 53.9167 130.0000 56.5000 C 130.3333 59.0833 130.3333 68.5833 130.0000 71.0000 C 129.6667 73.4167 128.3333 69.9167 128.0000 71.0000 C 127.6667 72.0833 128.5000 76.3333 128.0000 77.5000 C 127.5000 78.6667 125.5000 77.0833 125.0000 78.0000 C 124.5000 78.9167 125.3333 81.6667 125.0000 83.0000 C 124.6667 84.3333 123.8333 85.5000 123.0000 86.0000 C 122.1667 86.5000 120.5000 85.1667 120.0000 86.0000 C 119.5000 86.8333 120.8333 90.1667 120.0000 91.0000 C 119.1667 91.8333 116.3333 90.6667 115.0000 91.0000 C 113.6667 91.3333 112.5000 92.1667 112.0000 93.0000 C 111.5000 93.8333 113.2500 95.1667 112.0000 96.0000 C 110.7500 96.8333 108.6667 97.6667 104.5000 98.0000 C 100.3333 98.3333 89.9167 98.3333 87.0000 98.0000 C 84.0833 97.6667 88.1667 96.3333 87.0000 96.0000 C 85.8333 95.6667 81.1667 96.5000 80.0000 96.0000 C 78.8333 95.5000 80.7500 93.5000 80.0000 93.0000 C 79.2500 92.5000 76.8333 93.3333 75.5000 93.0000 C 74.1667 92.6667 72.5833 91.8333 72.0000 91.0000 C 71.4167 90.1667 72.3333 88.8333 72.0000 88.0000 C 71.6667 87.1667 70.8333 86.3333 70.0000 86.0000 C 69.1667 85.6667 67.5000 86.5000 67.0000 86.0000 C 66.5000 85.5000 67.3333 83.8333 67.0000 83.0000 C 66.6667 82.1667 65.8333 81.3333 65.0000 81.0000 C 64.1667 80.6667 62.5000 81.5000 62.0000 81.0000 C 61.5000 80.5000 62.3333 78.8333 62.0000 78.0000 C 61.6667 77.1667 60.8333 76.3333 60.0000 76.0000 C 59.1667 75.6667 57.5000 76.5000 57.0000 76.0000 C 56.5000 75.5000 57.8333 73.5000 57.0000 73.0000 C 56.1667 72.5000 53.1667 73.9167 52.0000 73.0000 C 50.8333 72.0833 50.3333 70.0000 50.0000 67.5000 C 49.6667 65.0000 49.6667 59.9167 50.0000 58.0000 C 50.3333 56.0833 51.1667 56.3333 52.0000 56.0000 C 52.8333 55.6667 54.1667 55.6667 55.0000 56.0000 C 55.8333 56.3333 56.6667 57.1667 57.0000 58.0000 C 57.3333 58.8333 56.5000 60.5000 57.0000 61.0000 C 57.5000 61.5000 59.1667 60.6667 60.0000 61.0000 C 60.8333 61.3333 61.6667 62.1667 62.0000 63.0000 C 62.3333 63.8333 61.5000 65.5000 62.0000 66.0000 C 62.5000 66.5000 64.1667 65.6667 65.0000 66.0000 C 65.8333 66.3333 66.6667 67.1667 67.0000 68.0000 C 67.3333 68.8333 66.5000 70.5000 67.0000 71.0000 C 67.5000 71.5000 69.1667 70.6667 70.0000 71.0000 C 70.8333 71.3333 71.6667 72.1667 72.0000 73.0000 C 72.3333 73.8333 71.5000 75.5000 72.0000 76.0000 C 72.5000 76.5000 74.1667 75.6667 75.0000 76.0000 C 75.8333 76.3333 76.6667 77.1667 77.0000 78.0000 C 77.3333 78.8333 76.4167 80.1667 77.0000 81.0000 C 77.5833 81.8333 79.1667 82.6667 80.5000 83.0000 C 81.8333 83.3333 84.2500 82.5000 85.0000 83.0000 C 85.7500 83.5000 81.3333 85.5000 85.0000 86.0000 C 88.6667 86.5000 103.3333 86.5000 107.0000 86.0000 C 110.6667 85.5000 106.5000 83.5000 107.0000 83.0000 C 107.5000 82.5000 109.1667 83.3333 110.0000 83.0000 C 110.8333 82.6667 111.6667 81.8333 112.0000 81.0000 C 112.3333 80.1667 111.5000 78.5000 112.0000 78.0000 C 112.5000 77.5000 114.1667 78.9167 115.0000 78.0000 C 115.8333 77.0833 116.6667 76.6667 117.0000 72.5000 C 117.3333 68.3333 117.3333 57.0833 117.0000 53.0000 C 116.6667 48.9167 115.8333 48.8333 115.0000 48.0000 C 114.1667 47.1667 112.8333 48.3333 112.0000 48.0000 C 111.1667 47.6667 110.3333 46.8333 110.0000 46.0000 C 109.6667 45.1667 110.8333 43.8333 110.0000 43.0000 C 109.1667 42.1667 108.8333 41.3333 105.0000 41.0000 C 101.1667 40.6667 90.3333 40.6667 87.0000 41.0000 C 83.6667 41.3333 85.3333 44.5833 85.0000 43.0000 C 84.6667 41.4167 84.6667 34.0000 85.0000 31.5000 C 85.3333 29.0000 86.6667 28.5833 87.0000 28.0000 C 87.3333 27.4167 84.0833 28.0000 87.0000 28.0000 Z"/>
  </g>
</svg>
