<svg xmlns="http://www.w3.org/2000/svg" viewBox="4 26 134 74" fill="none" role="img" aria-label="MemoryBinder">
  <title>MemoryBinder</title>
  <g stroke="none">
    <path fill="#1f7a7e" d="M 32 28 L 49.5 28 L 50 31 L 56.5 31 Q 55.7 34.5 62 33 L 62 36 L 65 36 Q 64 39 67 38 L 67 41 L 70 41 Q 69 44 72 43 L 72 46 L 77 46 L 77 48 L 80 48 L 80 51 Q 83 50 82 53 L 85 53 Q 83.7 57.1 87 56 L 87 71 L 82 71 L 82 68 Q 79 69 80 66 L 77 66 L 77 63 Q 74 64 75 61 L 72 61 L 72 58 Q 69 59 70 56 L 67 56 L 67 53 Q 64 54 65 51 L 62 51 L 62 48 Q 59 49 60 46 L 57 46 L 57 43 Q 50.7 44.5 51.5 41 L 30 41 Q 31.1 44.3 27 43 L 27 46 Q 24 45 25 48 L 22 48 Q 23.5 54.3 20 53.5 L 20 73 L 22 73 L 22 78 L 25 78 L 25 81 Q 28 80 27 83 L 32 83 L 32 86 L 50 86 Q 48.7 81.9 52 83 L 52 95.5 Q 49.2 94.9 50 98 L 32 98 L 31.5 96 L 25 96 L 25 93 L 22 93 Q 23 90 20 91 L 20 88 L 17 88 Q 18 85 15 86 L 15 83 L 12 83 Q 13.5 76.7 10 77.5 L 10 68 L 7 67.5 L 7 58 L 10 58 L 10 48.5 Q 13.5 49.3 12 43 L 15 43 Q 14 40 17 41 L 17 38 L 20 38 Q 19 35 22 36 L 22 33 Q 26.1 34.3 25 31 L 32 31 L 32 28 Z" />
    <path fill="#c20067" d="M 87 28 L 104.5 28 L 105 31 L 111.5 31 Q 110.8 34 115 33 L 115 36 Q 118 35 117 38 L 120 38 L 120 41 L 123 41 Q 122 44 125 43 L 125 48 L 128 48 L 128 55.5 L 130 56.5 L 130 71 L 128 71 L 128 77.5 L 125 78 L 125 83 Q 121.7 81.9 123 86 L 120 86 L 120 91 L 115 91 Q 116.1 94.3 112 93 L 112 96 Q 103.9 94.6 104.5 98 L 87 98 L 87 96 L 80 96 L 80 93 L 75.5 93 Q 76.3 90 72 91 L 72 88 Q 69 89 70 86 L 67 86 L 67 83 Q 64 84 65 81 L 62 81 L 62 78 Q 59 79 60 76 L 57 76 L 57 73 L 52 73 Q 53.5 66.7 50 67.5 L 50 58 Q 53 59 52 56 L 55 56 Q 54 59 57 58 L 57 61 L 60 61 Q 59 64 62 63 L 62 66 L 65 66 Q 64 69 67 68 L 67 71 L 70 71 Q 69 74 72 73 L 72 76 L 75 76 Q 74 79 77 78 L 77 81 Q 81.3 80 80.5 83 L 85 83 L 85 86 L 107 86 L 107 83 L 110 83 Q 109 80 112 81 L 112 78 L 115 78 Q 113.5 71.7 117 72.5 L 117 53 Q 113 54.2 115 48 L 112 48 Q 113 45 110 46 L 110 43 Q 103.8 45 105 41 L 87 41 Q 88 44 85 43 L 85 31.5 Q 88 32.3 87 28 Z" />
  </g>
</svg>
